<?xml version="1.0" encoding="iso-8859-1"?>
<!-- Generator: Adobe Illustrator 19.0.0, SVG Export Plug-In . SVG Version: 6.00 Build 0)  -->
<svg version="1.1" id="Layer_1" xmlns="http://www.w3.org/2000/svg" xmlns:xlink="http://www.w3.org/1999/xlink" x="0px" y="0px"
	 viewBox="0 0 462.999 462.999" style="enable-background:new 0 0 462.999 462.999;" xml:space="preserve">
<g>
	<path d="M383.5,313c-7.995,0-14.5,6.505-14.5,14.5s6.505,14.5,14.5,14.5s14.5-6.505,14.5-14.5S391.495,313,383.5,313z"/>
	<path d="M95.5,313c-7.995,0-14.5,6.505-14.5,14.5S87.505,342,95.5,342s14.5-6.505,14.5-14.5S103.495,313,95.5,313z"/>
	<path d="M444.293,218.312l-55.167-24.519l-40.382-87.494C343.614,95.182,332.387,88,320.144,88H23.5C10.542,88,0,98.542,0,111.5
		v200C0,324.458,10.542,335,23.5,335h25.098c3.607,22.64,23.263,40,46.902,40s43.295-17.36,46.902-40h194.195
		c3.607,22.64,23.263,40,46.902,40c23.639,0,43.295-17.36,46.902-40h9.098c12.958,0,23.5-10.542,23.5-23.5v-64.403
		C463,234.661,455.657,223.362,444.293,218.312z M349.163,143l22.615,49H303v-49H349.163z M95.5,360C77.58,360,63,345.42,63,327.5
		c0-17.921,14.58-32.5,32.5-32.5s32.5,14.579,32.5,32.5C128,345.42,113.42,360,95.5,360z M383.5,360
		c-17.92,0-32.5-14.579-32.5-32.5c0-17.921,14.58-32.5,32.5-32.5c17.92,0,32.5,14.579,32.5,32.5C416,345.42,401.42,360,383.5,360z
		 M448,288h-8.5c-4.142,0-7.5,3.357-7.5,7.5s3.358,7.5,7.5,7.5h8.5v8.5c0,4.687-3.813,8.5-8.5,8.5h-9.098
		c-3.607-22.64-23.263-40-46.902-40c-23.639,0-43.295,17.36-46.902,40H142.402c-3.607-22.64-23.263-40-46.902-40
		s-43.295,17.36-46.902,40H23.5c-4.687,0-8.5-3.813-8.5-8.5V303h24.5c4.142,0,7.5-3.357,7.5-7.5s-3.358-7.5-7.5-7.5H15V111.5
		c0-4.687,3.813-8.5,8.5-8.5h296.644c6.413,0,12.294,3.763,14.981,9.585L342.24,128H271.5c-8.547,0-15.5,6.953-15.5,15.5v32
		c0,17.369,14.131,31.5,31.5,31.5h94.409l46.575,20.7l-1.18,0.716C420.332,232.649,416,240.346,416,248.503V263.5
		c0,4.143,3.358,7.5,7.5,7.5H448V288z M288,143v49h-0.5c-9.098,0-16.5-7.402-16.5-16.5v-32c0-0.275,0.224-0.5,0.5-0.5H288z
		 M448,256h-17v-7.496c0-2.95,1.567-5.734,4.088-7.266l8.616-5.231c2.707,2.982,4.296,6.911,4.296,11.089V256z"/>
	<path d="M327.5,288h-176c-4.142,0-7.5,3.357-7.5,7.5s3.358,7.5,7.5,7.5h176c4.142,0,7.5-3.357,7.5-7.5S331.642,288,327.5,288z"/>
	<path d="M119.5,120c-4.142,0-7.5,3.357-7.5,7.5V160h-9v-32.5c0-4.143-3.358-7.5-7.5-7.5c-4.142,0-7.5,3.357-7.5,7.5V160h-9v-32.5
		c0-4.143-3.358-7.5-7.5-7.5c-4.142,0-7.5,3.357-7.5,7.5v48c0,12.958,10.542,23.5,23.5,23.5H88v64.5c0,4.143,3.358,7.5,7.5,7.5
		c4.142,0,7.5-3.357,7.5-7.5V199h0.5c12.958,0,23.5-10.542,23.5-23.5v-48C127,123.357,123.642,120,119.5,120z M112,175.5
		c0,4.687-3.813,8.5-8.5,8.5h-16c-4.687,0-8.5-3.813-8.5-8.5V175h33V175.5z"/>
	<path d="M151.5,271c4.142,0,7.5-3.357,7.5-7.5V231h15.056c4.565,0,8.876-1.998,11.827-5.481
		c2.951-3.483,4.212-8.063,3.462-12.567l-13.244-79.465C174.799,125.672,168.103,120,160.14,120c-8.9,0-16.14,7.24-16.14,16.14
		V263.5C144,267.643,147.358,271,151.5,271z M159,136.14c0-0.628,0.511-1.14,1.181-1.14c0.56,0,1.033,0.4,1.125,0.953
		l13.244,79.465c0.01,0.063,0.038,0.229-0.111,0.405C174.288,216,174.12,216,174.056,216H159V136.14z"/>
		</g>
</svg>
