<?xml version="1.0" encoding="utf-8"?>
<!-- Generator: Adobe Illustrator 17.0.0, SVG Export Plug-In . SVG Version: 6.00 Build 0)  -->
<!DOCTYPE svg PUBLIC "-//W3C//DTD SVG 1.1//EN" "http://www.w3.org/Graphics/SVG/1.1/DTD/svg11.dtd">
<svg version="1.1" id="Layer_1" xmlns="http://www.w3.org/2000/svg" xmlns:xlink="http://www.w3.org/1999/xlink" x="0px" y="0px"
	 width="500px" height="500px" viewBox="56 146 500 500" enable-background="new 56 146 500 500" xml:space="preserve">
<g display="none">
	<rect x="520.2" y="227.7" display="inline" width="61.2" height="61.2"/>
	<rect x="459" y="288.9" display="inline" width="61.2" height="61.2"/>
	<rect x="520.2" y="288.9" display="inline" width="61.2" height="61.2"/>
	<rect x="459" y="227.7" display="inline" width="61.2" height="61.2"/>
	<rect x="397.8" y="288.9" display="inline" width="61.2" height="61.2"/>
	<rect x="397.8" y="227.7" display="inline" width="61.2" height="61.2"/>
	<rect x="336.6" y="288.9" display="inline" width="61.2" height="61.2"/>
	<rect x="336.6" y="227.7" display="inline" width="61.2" height="61.2"/>
	<rect x="275.4" y="288.9" display="inline" width="61.2" height="61.2"/>
	<polygon display="inline" points="275.4,288.9 336.6,288.9 336.6,288.9 	"/>
	<polygon display="inline" points="336.6,227.7 336.6,227.7 336.6,227.7 	"/>
	<rect x="275.4" y="227.7" display="inline" width="61.2" height="61.2"/>
	<rect x="214.2" y="288.9" display="inline" width="61.2" height="61.2"/>
	<rect x="214.2" y="227.7" display="inline" width="61.2" height="61.2"/>
	<rect x="153" y="288.9" display="inline" width="61.2" height="61.2"/>
	<polygon display="inline" points="91.8,350.1 153,350.1 153,350.1 	"/>
	<rect x="91.8" y="288.9" display="inline" width="61.2" height="61.2"/>
	<rect x="30.6" y="288.9" display="inline" width="61.2" height="61.2"/>
	<rect x="91.8" y="227.7" display="inline" width="61.2" height="61.2"/>
	<rect x="153" y="166.5" display="inline" width="61.2" height="61.2"/>
	<rect x="214.2" y="105.3" display="inline" width="61.2" height="61.2"/>
	<rect x="91.8" y="350.1" display="inline" width="61.2" height="61.2"/>
	<rect x="153" y="411.3" display="inline" width="61.2" height="61.2"/>
	<rect x="214.2" y="472.5" display="inline" width="61.2" height="61.2"/>
</g>
<path d="M471.926,228.999l-48.564,48.564c31.22,31.22,48.564,72.846,48.564,117.363c0.578,91.347-74.003,166.506-165.349,166.506
	c-0.578,0-0.578,0-0.578,0c-43.939,0-85.565-17.344-117.363-49.142c-31.22-31.22-48.564-72.846-48.564-117.363
	c0-44.517,17.344-86.144,48.564-117.363c28.094-28.093,63.213-44.943,103.666-48.038V161.19
	C169.197,168.339,71.85,271.179,71.85,396.083c0,128.926,105.222,234.727,234.149,234.727h0.578
	c128.926-5.781,234.149-106.379,233.571-235.883C540.148,332.487,515.865,273.516,471.926,228.999z"/>
</svg>
