<?xml version="1.0" encoding="iso-8859-1"?>
<!-- Generator: Adobe Illustrator 17.1.0, SVG Export Plug-In . SVG Version: 6.00 Build 0)  -->
<!DOCTYPE svg PUBLIC "-//W3C//DTD SVG 1.1//EN" "http://www.w3.org/Graphics/SVG/1.1/DTD/svg11.dtd">
<svg version="1.1" id="Capa_1" xmlns="http://www.w3.org/2000/svg" xmlns:xlink="http://www.w3.org/1999/xlink" x="0px" y="0px"
	 viewBox="0 0 436.807 436.807" style="enable-background:new 0 0 436.807 436.807;" xml:space="preserve">
<g fill="#e35307">
	<path id="XMLID_130_" d="M109.246,207.047c4.971,0,9,4.029,9,9s-4.029,9-9,9c-28.8,0-55.557-15.563-69.828-40.613
	c-2.46-4.319-0.953-9.814,3.365-12.275c4.32-2.461,9.814-0.954,12.275,3.365C66.136,194.968,86.898,207.047,109.246,207.047z
	 M108.747,293.452v65.035c0,4.971,4.029,9,9,9s9-4.029,9-9v-65.035c0-4.971-4.029-9-9-9S108.747,288.481,108.747,293.452z
	 M242.334,216.047c0,4.971,4.029,9,9,9c16.438,0,32.245-4.935,45.711-14.271c4.085-2.832,5.101-8.439,2.269-12.524
	c-2.832-4.086-8.44-5.102-12.524-2.269c-10.439,7.238-22.699,11.063-35.455,11.063C246.363,207.047,242.334,211.076,242.334,216.047
	z M289.092,283.602c-4.971,0-9,4.029-9,9v86.591c-1.76,1.876-9.404,6.48-29.197,10.428c-18.741,3.738-42.864,5.797-67.927,5.797
	c-25.062,0-49.185-2.059-67.926-5.797c-19.792-3.947-27.437-8.552-29.196-10.428V263.873c3.387,0.363,6.823,0.549,10.306,0.549
	c21.905,0,43.341-7.566,60.356-21.306c3.867-3.122,4.471-8.788,1.348-12.656c-3.122-3.866-8.788-4.474-12.656-1.348
	c-14.024,11.324-30.985,17.31-49.048,17.31C53.059,246.422,18,211.363,18,168.271c0-43.092,35.059-78.149,78.151-78.149
	c2.466,0,4.996,0.122,7.522,0.362c3.745,0.354,7.309-1.647,8.949-5.027c13.199-27.183,40.153-44.068,70.345-44.068
	c30.193,0,57.148,16.886,70.347,44.066c1.641,3.38,5.209,5.386,8.949,5.028c2.52-0.239,5.05-0.361,7.521-0.361c4.971,0,9-4.029,9-9
	s-4.029-9-9-9c-1.036,0-2.079,0.018-3.127,0.052c-7.73-13.642-18.691-25.215-31.979-33.708
	c-15.435-9.863-33.315-15.077-51.711-15.077c-18.394,0-36.274,5.214-51.709,15.079c-13.288,8.492-24.249,20.065-31.979,33.706
	c-1.049-0.034-2.093-0.052-3.128-0.052C43.134,72.121,0,115.254,0,168.271c0,43.171,28.599,79.788,67.846,91.9v119.956
	c0,11.597,12.454,20.085,38.074,25.949c20.684,4.733,48.046,7.341,77.048,7.341c29.003,0,56.366-2.607,77.05-7.341
	c25.62-5.864,38.074-14.353,38.074-25.949v-87.525C298.092,287.631,294.063,283.602,289.092,283.602z M387.606,62.163
	c-4.971,0-9,4.029-9,9v65.035c0,4.971,4.029,9,9,9s9-4.029,9-9V71.163C396.606,66.192,392.577,62.163,387.606,62.163z
	 M319.396,228.659c-13.924,11.454-31.543,17.763-49.611,17.763c-18.062,0-35.022-5.985-49.049-17.311
	c-3.866-3.122-9.534-2.517-12.656,1.35c-3.122,3.867-2.519,9.533,1.35,12.656c17.017,13.738,38.451,21.305,60.355,21.305
	c22.229,0,43.909-7.764,61.047-21.862c3.839-3.157,4.391-8.829,1.232-12.668C328.906,226.052,323.234,225.5,319.396,228.659z
	 M436.807,40.252v125.003c0,17.42-28.017,26.08-58.317,27.494v134.428c10.538,3.72,18.11,13.779,18.11,25.575v42.542
	c0,14.948-12.162,27.109-27.11,27.109c-14.95,0-27.111-12.161-27.111-27.109v-42.542c0-11.797,7.572-21.857,18.111-25.575V192.749
	c-30.301-1.414-58.318-10.074-58.318-27.494V40.252c0-2.063,0.694-3.966,1.863-5.483c7.948-14.966,39.576-20.365,65.455-20.365
	c25.871,0,57.487,5.398,65.445,20.354C436.108,36.277,436.807,38.183,436.807,40.252z M369.489,343.642h-0.003
	c-5.022,0-9.108,4.087-9.108,9.11v42.542c0,5.022,4.086,9.109,9.108,9.109c5.026,0,9.113-4.087,9.113-9.109v-42.542
	C378.6,347.729,374.513,343.642,369.489,343.642z M418.807,42.867c-2.771-3.33-19.627-10.464-49.317-10.464
	c-29.683,0-46.538,7.129-49.318,10.461v121.633c2.785,3.334,19.642,10.46,49.318,10.46c29.676,0,46.531-7.126,49.317-10.46V42.867z
	 M351.371,62.163c-4.971,0-9,4.029-9,9v65.035c0,4.971,4.029,9,9,9s9-4.029,9-9V71.163
	C360.371,66.192,356.342,62.163,351.371,62.163z"/>
</g>
</svg>
